# xmcd
#
# Track frame offsets: 
#        150
#        15162
#        28910
#        42605
#        56872
#        68882
#        85692
#        104245
#        117982
#        135612
#        149377
#        166462
#        177845
#        197535
#        214872
#        231287
#        244747
#        262417
#        274367
#        295372
#
# Disc length: 4152 seconds
#
# Revision: 1
# Processed by: cddbd v1.5.2PL0 Copyright (c) Steve Scherf et al.
# Submitted via: ExactAudioCopy v1.0b3
#
DISCID=40103614
DTITLE=Various Artist - John Laws Country Collection
DYEAR=1992
DGENRE=Country
TTITLE0=Willie Nelson - Nothing I Can Do About It Now
TTITLE1=Merle Haggard - Wouldn't That Be Something
TTITLE2=Lefty Frizzel - I Want To Be With You Always
TTITLE3=Lacy J Dalton - 16th Avenue
TTITLE4=Eddy Arnold - Make The World Go Away
TTITLE5=The Oak Ridge Boys - Elvira
TTITLE6=Don Williams - I Believe In You
TTITLE7=Ricky Van Shelton - I Meant Every Word He Said
TTITLE8=Ricky Scaggs - Life's Too Long (To Live Like This)
TTITLE9=Hugh Moffat - Rose Of My Heart
TTITLE10=Waylon Jennings and Barbara Mandrell - Angels Love Bad Men
TTITLE11=John Conlee - Busted
TTITLE12=Don McLean - To Have and To Hold
TTITLE13=Jack Clement - When I Dream
TTITLE14=Willie Nelson and Waylon Jennings - Old Age and Treachery
TTITLE15=Johnny Cash - Tennessee Flat-Top Box
TTITLE16=Marty Robbins - Big Iron
TTITLE17=John Williamson - The Shed
TTITLE18=Tompall and The Glaser Brothers - Maria Consuela
TTITLE19=Ed Bruce - Everything's A Waltz
EXTD=
EXTT0=
EXTT1=
EXTT2=
EXTT3=
EXTT4=
EXTT5=
EXTT6=
EXTT7=
EXTT8=
EXTT9=
EXTT10=
EXTT11=
EXTT12=
EXTT13=
EXTT14=
EXTT15=
EXTT16=
EXTT17=
EXTT18=
EXTT19=
PLAYORDER=
